<mxfile host="app.diagrams.net" agent="Mozilla/5.0 (Windows NT 10.0; Win64; x64) AppleWebKit/537.36 (KHTML, like Gecko) Chrome/138.0.0.0 Safari/537.36" version="28.0.7">
  <diagram name="Page-1" id="vgc4KZyJiyV-oOdATero">
    <mxGraphModel dx="1678" dy="921" grid="1" gridSize="10" guides="1" tooltips="1" connect="1" arrows="1" fold="1" page="1" pageScale="1" pageWidth="850" pageHeight="1100" math="0" shadow="0">
      <root>
        <mxCell id="0" />
        <mxCell id="1" parent="0" />
        <mxCell id="R9w4oZn1IZ1u9DNi2aI7-1" value="" style="rounded=0;whiteSpace=wrap;html=1;" parent="1" vertex="1">
          <mxGeometry x="430" y="330" width="430" height="600" as="geometry" />
        </mxCell>
        <mxCell id="R9w4oZn1IZ1u9DNi2aI7-2" value="&lt;b&gt;Registration&lt;/b&gt;" style="ellipse;whiteSpace=wrap;html=1;" parent="1" vertex="1">
          <mxGeometry x="475" y="360" width="220" height="40" as="geometry" />
        </mxCell>
        <mxCell id="nBfpvjuauojzDzZDGPd1-9" style="edgeStyle=orthogonalEdgeStyle;rounded=0;orthogonalLoop=1;jettySize=auto;html=1;exitX=0.5;exitY=0;exitDx=0;exitDy=0;exitPerimeter=0;" edge="1" parent="1" source="R9w4oZn1IZ1u9DNi2aI7-4">
          <mxGeometry relative="1" as="geometry">
            <mxPoint x="335" y="450" as="targetPoint" />
            <Array as="points">
              <mxPoint x="285" y="490" />
              <mxPoint x="335" y="490" />
            </Array>
          </mxGeometry>
        </mxCell>
        <mxCell id="R9w4oZn1IZ1u9DNi2aI7-4" value="&lt;b&gt;Faculty&lt;/b&gt;" style="shape=umlActor;verticalLabelPosition=bottom;verticalAlign=top;html=1;outlineConnect=0;" parent="1" vertex="1">
          <mxGeometry x="270" y="730" width="30" height="60" as="geometry" />
        </mxCell>
        <mxCell id="R9w4oZn1IZ1u9DNi2aI7-6" value="&lt;b&gt;Logout&lt;/b&gt;" style="ellipse;whiteSpace=wrap;html=1;" parent="1" vertex="1">
          <mxGeometry x="495" y="870" width="150" height="40" as="geometry" />
        </mxCell>
        <mxCell id="R9w4oZn1IZ1u9DNi2aI7-7" value="&lt;b&gt;Profile Management&lt;/b&gt;" style="ellipse;whiteSpace=wrap;html=1;" parent="1" vertex="1">
          <mxGeometry x="490" y="490" width="225" height="40" as="geometry" />
        </mxCell>
        <mxCell id="R9w4oZn1IZ1u9DNi2aI7-10" value="&lt;b&gt;Login&lt;/b&gt;" style="ellipse;whiteSpace=wrap;html=1;" parent="1" vertex="1">
          <mxGeometry x="495" y="420" width="85" height="40" as="geometry" />
        </mxCell>
        <mxCell id="R9w4oZn1IZ1u9DNi2aI7-11" value="Reset Password" style="ellipse;whiteSpace=wrap;html=1;" parent="1" vertex="1">
          <mxGeometry x="690" y="420" width="110" height="40" as="geometry" />
        </mxCell>
        <mxCell id="R9w4oZn1IZ1u9DNi2aI7-12" value="&lt;b&gt;Code Editor&lt;/b&gt;" style="ellipse;whiteSpace=wrap;html=1;" parent="1" vertex="1">
          <mxGeometry x="495" y="560" width="110" height="40" as="geometry" />
        </mxCell>
        <mxCell id="R9w4oZn1IZ1u9DNi2aI7-13" value="Run Code" style="ellipse;whiteSpace=wrap;html=1;" parent="1" vertex="1">
          <mxGeometry x="730" y="560" width="110" height="40" as="geometry" />
        </mxCell>
        <mxCell id="R9w4oZn1IZ1u9DNi2aI7-14" value="Code Submission" style="ellipse;whiteSpace=wrap;html=1;" parent="1" vertex="1">
          <mxGeometry x="490" y="640" width="125" height="40" as="geometry" />
        </mxCell>
        <mxCell id="R9w4oZn1IZ1u9DNi2aI7-17" value="&lt;b&gt;View Submissions&lt;/b&gt;" style="ellipse;whiteSpace=wrap;html=1;" parent="1" vertex="1">
          <mxGeometry x="475" y="700" width="220" height="40" as="geometry" />
        </mxCell>
        <mxCell id="R9w4oZn1IZ1u9DNi2aI7-18" value="&lt;b&gt;Manage Problem Statement&lt;/b&gt;" style="ellipse;whiteSpace=wrap;html=1;" parent="1" vertex="1">
          <mxGeometry x="490" y="820" width="170" height="40" as="geometry" />
        </mxCell>
        <mxCell id="R9w4oZn1IZ1u9DNi2aI7-19" value="&lt;b&gt;View Problem Statements&lt;/b&gt;" style="ellipse;whiteSpace=wrap;html=1;" parent="1" vertex="1">
          <mxGeometry x="485" y="760" width="180" height="40" as="geometry" />
        </mxCell>
        <mxCell id="R9w4oZn1IZ1u9DNi2aI7-20" value="&amp;lt;&amp;lt;extends&amp;gt;&amp;gt;" style="endArrow=open;endSize=12;dashed=1;html=1;rounded=0;entryX=1;entryY=0.5;entryDx=0;entryDy=0;exitX=0;exitY=0.5;exitDx=0;exitDy=0;" parent="1" source="R9w4oZn1IZ1u9DNi2aI7-11" target="R9w4oZn1IZ1u9DNi2aI7-10" edge="1">
          <mxGeometry width="160" relative="1" as="geometry">
            <mxPoint x="710" y="500" as="sourcePoint" />
            <mxPoint x="870" y="500" as="targetPoint" />
          </mxGeometry>
        </mxCell>
        <mxCell id="R9w4oZn1IZ1u9DNi2aI7-21" value="&amp;lt;&amp;lt;include&amp;gt;&amp;gt;" style="endArrow=open;endSize=12;dashed=1;html=1;rounded=0;exitX=1;exitY=0.5;exitDx=0;exitDy=0;" parent="1" source="R9w4oZn1IZ1u9DNi2aI7-12" target="R9w4oZn1IZ1u9DNi2aI7-13" edge="1">
          <mxGeometry width="160" relative="1" as="geometry">
            <mxPoint x="670" y="720" as="sourcePoint" />
            <mxPoint x="830" y="720" as="targetPoint" />
          </mxGeometry>
        </mxCell>
        <mxCell id="R9w4oZn1IZ1u9DNi2aI7-22" value="&amp;lt;&amp;lt;include&amp;gt;&amp;gt;" style="endArrow=open;endSize=12;dashed=1;html=1;rounded=0;exitX=0.5;exitY=1;exitDx=0;exitDy=0;entryX=0.5;entryY=0;entryDx=0;entryDy=0;" parent="1" source="R9w4oZn1IZ1u9DNi2aI7-12" target="R9w4oZn1IZ1u9DNi2aI7-14" edge="1">
          <mxGeometry width="160" relative="1" as="geometry">
            <mxPoint x="820" y="540" as="sourcePoint" />
            <mxPoint x="798" y="560" as="targetPoint" />
          </mxGeometry>
        </mxCell>
        <mxCell id="R9w4oZn1IZ1u9DNi2aI7-24" value="" style="endArrow=none;html=1;rounded=0;entryX=0;entryY=0.5;entryDx=0;entryDy=0;exitX=1;exitY=0.3333333333333333;exitDx=0;exitDy=0;exitPerimeter=0;" parent="1" source="nBfpvjuauojzDzZDGPd1-6" target="R9w4oZn1IZ1u9DNi2aI7-2" edge="1">
          <mxGeometry width="50" height="50" relative="1" as="geometry">
            <mxPoint x="300" y="570" as="sourcePoint" />
            <mxPoint x="350" y="390" as="targetPoint" />
          </mxGeometry>
        </mxCell>
        <mxCell id="R9w4oZn1IZ1u9DNi2aI7-28" value="" style="endArrow=none;html=1;rounded=0;entryX=0;entryY=0.5;entryDx=0;entryDy=0;exitX=1;exitY=0.3333333333333333;exitDx=0;exitDy=0;exitPerimeter=0;" parent="1" source="R9w4oZn1IZ1u9DNi2aI7-4" target="R9w4oZn1IZ1u9DNi2aI7-17" edge="1">
          <mxGeometry width="50" height="50" relative="1" as="geometry">
            <mxPoint x="310" y="1020" as="sourcePoint" />
            <mxPoint x="360" y="970" as="targetPoint" />
          </mxGeometry>
        </mxCell>
        <mxCell id="R9w4oZn1IZ1u9DNi2aI7-29" style="edgeStyle=orthogonalEdgeStyle;rounded=0;orthogonalLoop=1;jettySize=auto;html=1;exitX=0.5;exitY=1;exitDx=0;exitDy=0;" parent="1" edge="1">
          <mxGeometry relative="1" as="geometry">
            <mxPoint x="832.4999999999995" y="920" as="sourcePoint" />
            <mxPoint x="832.4999999999995" y="920" as="targetPoint" />
          </mxGeometry>
        </mxCell>
        <mxCell id="R9w4oZn1IZ1u9DNi2aI7-30" value="" style="endArrow=none;html=1;rounded=0;entryX=0;entryY=0.5;entryDx=0;entryDy=0;exitX=1;exitY=0.3333333333333333;exitDx=0;exitDy=0;exitPerimeter=0;" parent="1" source="R9w4oZn1IZ1u9DNi2aI7-33" target="R9w4oZn1IZ1u9DNi2aI7-19" edge="1">
          <mxGeometry width="50" height="50" relative="1" as="geometry">
            <mxPoint x="360" y="1020" as="sourcePoint" />
            <mxPoint x="500" y="900" as="targetPoint" />
          </mxGeometry>
        </mxCell>
        <mxCell id="R9w4oZn1IZ1u9DNi2aI7-33" value="&lt;b&gt;Users&lt;/b&gt;" style="shape=umlActor;verticalLabelPosition=bottom;verticalAlign=top;html=1;outlineConnect=0;" parent="1" vertex="1">
          <mxGeometry x="350" y="590" width="30" height="60" as="geometry" />
        </mxCell>
        <mxCell id="R9w4oZn1IZ1u9DNi2aI7-34" value="" style="endArrow=none;html=1;rounded=0;entryX=0;entryY=0.5;entryDx=0;entryDy=0;exitX=1;exitY=0.3333333333333333;exitDx=0;exitDy=0;exitPerimeter=0;" parent="1" source="nBfpvjuauojzDzZDGPd1-6" target="R9w4oZn1IZ1u9DNi2aI7-10" edge="1">
          <mxGeometry width="50" height="50" relative="1" as="geometry">
            <mxPoint x="400" y="550" as="sourcePoint" />
            <mxPoint x="450" y="500" as="targetPoint" />
          </mxGeometry>
        </mxCell>
        <mxCell id="R9w4oZn1IZ1u9DNi2aI7-36" value="" style="endArrow=none;html=1;rounded=0;entryX=0;entryY=0.5;entryDx=0;entryDy=0;exitX=1;exitY=0.3333333333333333;exitDx=0;exitDy=0;exitPerimeter=0;" parent="1" source="R9w4oZn1IZ1u9DNi2aI7-33" target="R9w4oZn1IZ1u9DNi2aI7-12" edge="1">
          <mxGeometry width="50" height="50" relative="1" as="geometry">
            <mxPoint x="420" y="710" as="sourcePoint" />
            <mxPoint x="470" y="660" as="targetPoint" />
          </mxGeometry>
        </mxCell>
        <mxCell id="R9w4oZn1IZ1u9DNi2aI7-39" value="" style="endArrow=none;html=1;rounded=0;entryX=0;entryY=0.5;entryDx=0;entryDy=0;exitX=1;exitY=0.3333333333333333;exitDx=0;exitDy=0;exitPerimeter=0;" parent="1" source="nBfpvjuauojzDzZDGPd1-6" target="R9w4oZn1IZ1u9DNi2aI7-6" edge="1">
          <mxGeometry width="50" height="50" relative="1" as="geometry">
            <mxPoint x="300" y="1140" as="sourcePoint" />
            <mxPoint x="350" y="1090" as="targetPoint" />
          </mxGeometry>
        </mxCell>
        <mxCell id="R9w4oZn1IZ1u9DNi2aI7-42" value="" style="endArrow=none;html=1;rounded=0;entryX=0;entryY=0.5;entryDx=0;entryDy=0;exitX=1;exitY=0.3333333333333333;exitDx=0;exitDy=0;exitPerimeter=0;" parent="1" source="R9w4oZn1IZ1u9DNi2aI7-4" target="R9w4oZn1IZ1u9DNi2aI7-18" edge="1">
          <mxGeometry width="50" height="50" relative="1" as="geometry">
            <mxPoint x="310" y="1030" as="sourcePoint" />
            <mxPoint x="360" y="980" as="targetPoint" />
          </mxGeometry>
        </mxCell>
        <mxCell id="nBfpvjuauojzDzZDGPd1-6" value="Users" style="shape=umlActor;verticalLabelPosition=bottom;verticalAlign=top;html=1;outlineConnect=0;" vertex="1" parent="1">
          <mxGeometry x="320" y="370" width="30" height="60" as="geometry" />
        </mxCell>
        <mxCell id="nBfpvjuauojzDzZDGPd1-8" value="" style="endArrow=none;html=1;rounded=0;entryX=0;entryY=0.5;entryDx=0;entryDy=0;exitX=1;exitY=0.3333333333333333;exitDx=0;exitDy=0;exitPerimeter=0;" edge="1" parent="1" source="nBfpvjuauojzDzZDGPd1-6" target="R9w4oZn1IZ1u9DNi2aI7-7">
          <mxGeometry width="50" height="50" relative="1" as="geometry">
            <mxPoint x="290" y="710" as="sourcePoint" />
            <mxPoint x="340" y="660" as="targetPoint" />
          </mxGeometry>
        </mxCell>
        <mxCell id="nBfpvjuauojzDzZDGPd1-12" value="" style="endArrow=none;html=1;rounded=0;entryX=0.5;entryY=0;entryDx=0;entryDy=0;entryPerimeter=0;" edge="1" parent="1" target="R9w4oZn1IZ1u9DNi2aI7-33">
          <mxGeometry width="50" height="50" relative="1" as="geometry">
            <mxPoint x="330" y="490" as="sourcePoint" />
            <mxPoint x="340" y="660" as="targetPoint" />
            <Array as="points">
              <mxPoint x="365" y="490" />
            </Array>
          </mxGeometry>
        </mxCell>
        <mxCell id="nBfpvjuauojzDzZDGPd1-13" value="Create Problem" style="ellipse;whiteSpace=wrap;html=1;" vertex="1" parent="1">
          <mxGeometry x="695" y="760" width="110" height="40" as="geometry" />
        </mxCell>
        <mxCell id="nBfpvjuauojzDzZDGPd1-14" value="&amp;lt;&amp;lt;include&amp;gt;&amp;gt;" style="endArrow=open;endSize=12;dashed=1;html=1;rounded=0;exitX=1;exitY=0.5;exitDx=0;exitDy=0;" edge="1" parent="1" target="nBfpvjuauojzDzZDGPd1-13" source="R9w4oZn1IZ1u9DNi2aI7-18">
          <mxGeometry width="160" relative="1" as="geometry">
            <mxPoint x="690" y="810" as="sourcePoint" />
            <mxPoint x="915" y="950" as="targetPoint" />
          </mxGeometry>
        </mxCell>
        <mxCell id="nBfpvjuauojzDzZDGPd1-15" value="Update Problem" style="ellipse;whiteSpace=wrap;html=1;" vertex="1" parent="1">
          <mxGeometry x="715" y="870" width="110" height="40" as="geometry" />
        </mxCell>
        <mxCell id="nBfpvjuauojzDzZDGPd1-16" value="&amp;lt;&amp;lt;include&amp;gt;&amp;gt;" style="endArrow=open;endSize=12;dashed=1;html=1;rounded=0;exitX=1;exitY=0.5;exitDx=0;exitDy=0;" edge="1" parent="1" target="nBfpvjuauojzDzZDGPd1-15" source="R9w4oZn1IZ1u9DNi2aI7-18">
          <mxGeometry width="160" relative="1" as="geometry">
            <mxPoint x="679.9999999999995" y="850" as="sourcePoint" />
            <mxPoint x="1005" y="1030" as="targetPoint" />
          </mxGeometry>
        </mxCell>
      </root>
    </mxGraphModel>
  </diagram>
</mxfile>
